<svg viewBox="0 0 64 64">
  <path d="m0 54 a10 10 0 0 0 10 10 h44 a10 10 0 0 0 10 -10 v-44 a10 10 0 0 0 -10 -10 h-44 a10 10 0 0 0 -10 10z" fill="#f0f1f3"/>
  <path d="m32 64 h-16 a9.6 9.6 0 0 1 -9.6 -9.6 v-28.8 h-12.8 v-12.8 h12.8 v-12.8 h12.8 v12.8 h12.8 v12.8 h-12.8 v22.4 a3.2 3.2 0 0 0 3.2 3.2 h9.6z m6.4 -11.2 a9.6 9.6 0 0 1 19.2 0 a9.6 9.6 0 0 1 -19.2 0 m4.8 0 a4.8 4.8 0 0 0 9.6 0 a4.8 4.8 0 0 0 -9.6 0 m-4.8 -10.8 h9.6 a9.6 9.6 0 0 0 0 -19.2 h-9.6z m4.8 -4.8 v-9.6 h4.8 a4.8 4.8 0 0 1 0 9.6z m-4.8 -25.6 a9.6 9.6 0 0 1 19.2 0 a9.6 9.6 0 0 1 -19.2 0 m4.8 0 a4.8 4.8 0 0 0 9.6 0 a4.8 4.8 0 0 0 -9.6 0" fill="#B53389"/>
</svg>